<?xml version="1.0" standalone="no"?>
<!DOCTYPE svg PUBLIC "-//W3C//DTD SVG 20010904//EN"
 "http://www.w3.org/TR/2001/REC-SVG-20010904/DTD/svg10.dtd">
<svg version="1.0" xmlns="http://www.w3.org/2000/svg"
 width="240.000000pt" height="44.000000pt" viewBox="0 0 240.000000 44.000000"
 preserveAspectRatio="xMidYMid meet">

<g transform="translate(0.000000,44.000000) scale(0.100000,-0.100000)"
fill="#000000" stroke="none">
<path d="M925 408 c-2 -7 -7 -48 -12 -90 -9 -77 -9 -78 13 -78 18 0 24 7 27
33 l3 32 8 -32 c6 -23 14 -33 28 -33 16 0 19 6 17 38 -1 20 3 47 9 59 15 28
15 56 0 71 -16 16 -88 16 -93 0z m58 -34 c8 -8 -3 -34 -14 -34 -5 0 -9 9 -9
20 0 19 11 26 23 14z"/>
<path d="M1046 363 c-4 -32 -10 -73 -13 -90 l-5 -33 51 0 c44 0 51 3 51 20 0
15 -7 20 -25 20 -30 0 -34 25 -5 33 23 6 27 37 5 37 -8 0 -15 7 -15 15 0 10
10 15 30 15 23 0 30 4 30 20 0 17 -7 20 -49 20 l-49 0 -6 -57z"/>
<path d="M1177 402 c-24 -26 -21 -55 8 -82 14 -13 25 -30 25 -39 0 -12 -3 -12
-12 -3 -16 16 -48 15 -48 0 1 -48 74 -51 100 -6 14 26 13 29 -19 62 -19 20
-31 39 -26 43 4 5 10 2 12 -4 5 -15 39 -17 48 -3 3 5 1 19 -5 30 -14 26 -61
27 -83 2z"/>
<path d="M1287 398 c-3 -13 -9 -53 -12 -90 l-7 -68 51 0 c44 0 51 3 51 20 0
15 -7 20 -25 20 -16 0 -25 6 -25 15 0 8 7 15 15 15 8 0 15 9 15 20 0 11 -7 20
-15 20 -9 0 -12 6 -9 15 4 8 16 15 29 15 19 0 35 16 35 36 0 2 -22 4 -49 4
-42 0 -50 -3 -54 -22z"/>
<path d="M1395 358 c-3 -35 -8 -75 -11 -90 -5 -25 -2 -28 20 -28 21 0 25 5 28
33 2 24 8 33 25 35 25 4 53 37 53 64 0 28 -29 48 -70 48 l-38 0 -7 -62z m65 8
c0 -8 -4 -18 -10 -21 -5 -3 -10 3 -10 14 0 12 5 21 10 21 6 0 10 -6 10 -14z"/>
<path d="M767 178 c-3 -18 -9 -59 -13 -90 -6 -54 -5 -58 14 -58 13 0 22 9 27
27 l7 28 10 -27 c6 -18 17 -28 29 -28 22 0 23 9 8 61 -10 33 -9 42 10 72 26
42 26 47 3 47 -9 0 -25 -12 -34 -27 l-17 -28 -1 28 c0 41 -36 37 -43 -5z"/>
<path d="M895 143 c-3 -38 -9 -78 -12 -91 -5 -21 -2 -22 46 -22 39 0 51 4 51
15 0 8 -9 15 -19 15 -30 0 -37 22 -13 38 25 17 29 42 7 42 -8 0 -15 7 -15 15
0 10 10 15 30 15 23 0 30 4 30 20 0 17 -7 20 -49 20 l-49 0 -7 -67z"/>
<path d="M1017 188 c-3 -13 -9 -53 -12 -90 -7 -65 -6 -68 14 -68 14 0 21 6 21
19 0 11 5 23 10 26 6 4 10 -5 10 -19 0 -22 4 -26 30 -26 26 0 30 3 30 29 0 15
3 56 6 90 7 58 6 61 -15 61 -17 0 -21 -6 -21 -29 0 -42 -18 -48 -22 -9 -4 42
-42 53 -51 16z"/>
<path d="M1165 151 c6 -32 10 -72 7 -90 -4 -26 -1 -31 16 -31 16 0 23 9 28 37
4 21 18 61 30 90 l24 53 -25 0 c-18 0 -25 -5 -25 -19 0 -11 -4 -23 -10 -26 -6
-4 -10 5 -10 19 0 21 -5 26 -24 26 -23 0 -23 0 -11 -59z"/>
<path d="M1296 126 c-31 -101 -31 -96 -6 -96 11 0 20 5 20 10 0 6 7 10 15 10
8 0 15 -4 15 -10 0 -5 10 -10 23 -10 22 0 23 3 20 58 -7 108 -11 122 -38 122
-21 0 -27 -9 -49 -84z m44 -16 c0 -11 -4 -20 -9 -20 -5 0 -7 9 -4 20 3 11 7
20 9 20 2 0 4 -9 4 -20z"/>
<path d="M1425 198 c-2 -7 -7 -48 -12 -90 -9 -77 -9 -78 13 -78 18 0 24 7 27
33 l3 32 8 -32 c7 -25 14 -33 31 -33 26 0 29 10 40 118 7 58 6 62 -14 62 -15
0 -21 -6 -21 -22 0 -13 -5 -30 -10 -38 -8 -12 -10 -11 -10 7 0 12 -3 28 -6 37
-7 19 -43 21 -49 4z"/>
<path d="M1577 198 c-11 -8 -20 -37 -25 -77 -8 -56 -7 -66 10 -83 35 -35 85
-5 95 55 5 35 4 37 -21 37 -25 0 -30 -7 -27 -42 1 -9 -3 -20 -10 -24 -9 -5
-11 6 -6 46 7 54 16 75 24 53 7 -20 43 -16 43 5 0 38 -48 55 -83 30z"/>
</g>
</svg>
